<svg width="32" height="33" viewBox="0 0 32 33" fill="none" xmlns="http://www.w3.org/2000/svg">
<path d="M28.2818 11.5524C28.6411 12.1441 28.1639 12.8334 27.4716 12.8334H3.66667C3.11439 12.8334 2.66667 12.3857 2.66667 11.8334V9.06008C2.66667 5.80675 5.30667 3.16675 8.56001 3.16675H11.6533C13.8267 3.16675 14.5067 3.87341 15.3733 5.03341L17.24 7.51341C17.6533 8.06008 17.7067 8.12675 18.48 8.12675H22.2C24.7756 8.12675 27.0341 9.49732 28.2818 11.5524Z" fill="#AAAAAA"/>
<path d="M29.3101 15.8294C29.3082 15.2784 28.861 14.8328 28.31 14.8328L3.66665 14.8332C3.11438 14.8332 2.66667 15.2809 2.66667 15.8332V22.6999C2.66667 26.6332 5.86667 29.8332 9.8 29.8332H22.2C26.1333 29.8332 29.3333 26.6332 29.3333 22.6999L29.3101 15.8294ZM19.3333 22.8332H17.08V25.1666C17.08 25.7132 16.6267 26.1666 16.08 26.1666C15.52 26.1666 15.08 25.7132 15.08 25.1666V22.8332H12.6667C12.12 22.8332 11.6667 22.3799 11.6667 21.8332C11.6667 21.2866 12.12 20.8332 12.6667 20.8332H15.08V18.4999C15.08 17.9532 15.52 17.4999 16.08 17.4999C16.6267 17.4999 17.08 17.9532 17.08 18.4999V20.8332H19.3333C19.88 20.8332 20.3333 21.2866 20.3333 21.8332C20.3333 22.3799 19.88 22.8332 19.3333 22.8332Z" fill="#AAAAAA"/>
</svg>
