<svg width="120" height="120" viewBox="0 0 120 120" fill="none" xmlns="http://www.w3.org/2000/svg">
<g clip-path="url(#clip0_120_7523)">
<rect width="120" height="120" rx="24" fill="white"/>
<rect width="120" height="120" fill="url(#paint0_linear_120_7523)"/>
<path d="M47.3401 97.2876C53.8145 96.1084 71.8058 88.2402 73.7564 86.0749C75.707 83.8881 86.3939 72.4395 87.2032 70.51C88.0124 68.5805 90.7724 58.5469 90.8554 52.9298C90.9384 47.3128 89.714 37.515 88.7387 35.3926C87.7634 33.2701 82.7416 29.3896 82.7416 29.3896L71.287 25.3161L70.6852 23.7939C70.6852 23.7939 69.7929 21.3284 66.8255 21.3284C66.1407 21.3284 65.3314 21.4571 64.3769 21.8001C59.4381 23.5581 33.0841 30.5044 33.0841 30.5044C33.0841 30.5044 31.59 31.0404 30.3864 32.1981C29.7846 32.777 29.1621 33.5488 29.1621 34.3635V92.6996C29.1621 92.6996 40.8658 98.4667 47.3401 97.2876Z" fill="#007DC5"/>
<path d="M87.3691 27.2019C82.4718 29.0885 54.852 39.2936 54.852 39.2936C54.852 39.2936 34.3084 45.7468 28 34.3626V44.6105C28 44.6105 32.2125 51.8569 44.0407 50.1847C45.7423 49.8845 47.2363 53.0361 44.0407 53.9151C40.845 54.7941 31.8597 54.0866 28 49.3057V84.5303C28 84.5303 32.8558 91.3051 43.9577 90.2546C46.7591 89.8258 47.0496 93.8135 43.7501 93.9421C40.4715 94.0708 32.42 94.4352 28 88.7967V96.0003C28 96.0003 34.5159 105.798 52.2166 100.352C56.1593 98.8088 87.8671 86.2026 87.8671 86.2026C87.8671 86.2026 91.6646 84.1873 91.9966 79.0847V30.2677C91.9966 30.2677 92.2041 26.7731 89.3612 26.7731C88.801 26.7731 88.1577 26.9017 87.3691 27.2019Z" fill="url(#paint1_linear_120_7523)"/>
<path d="M33.7898 35.1122C33.7898 35.1122 32.2542 35.9912 31.3619 34.6405C30.4696 33.3113 29.1416 31.3817 32.3372 30.3312C35.5329 29.2807 67.1992 18.1109 67.1992 18.1109C67.1992 18.1109 70.6854 17.189 70.6854 20.6621V25.5074C70.6854 25.5074 69.1498 25.2072 68.8593 24.4997C68.5688 23.7923 68.4028 22.4416 66.7842 23.1276C65.1863 23.8137 33.7898 35.1122 33.7898 35.1122Z" fill="white"/>
<path d="M70.0835 24.2645L34.8065 36.8279L35.0348 37.5354L70.3325 24.972L70.0835 24.2645Z" fill="white"/>
<path d="M73.2168 26.3227L39.8281 38.2215L40.0564 38.9504L73.4658 27.0302L73.2168 26.3227Z" fill="white"/>
<path d="M77.1597 27.9522L48.2948 38.2216L48.5231 38.9505L77.388 28.6597L77.1597 27.9522Z" fill="white"/>
<path d="M84.4849 39.9583C83.0323 38.9078 81.4137 38.3932 79.6499 38.3932C78.3426 38.3932 76.9522 38.672 75.4789 39.2294L49.4569 49.0485L49.6852 94.0066L59.8533 90.169L59.6873 56.295L75.5204 50.3135C76.2052 50.0562 76.807 50.1205 77.305 50.5064C77.803 50.9138 78.0521 51.4926 78.0728 52.2859C78.0728 53.0791 77.8238 53.8509 77.3465 54.6013C76.8485 55.3731 76.2467 55.8876 75.5619 56.1449L62.7792 60.9687L62.8414 72.0528L75.6242 67.229C79.1311 65.8998 82.1193 63.4128 84.6094 59.7253C87.0581 56.0592 88.2824 52.2859 88.2616 48.4268C88.2201 44.5892 86.9751 41.7592 84.4849 39.9583Z" fill="url(#paint2_linear_120_7523)"/>
</g>
<defs>
<linearGradient id="paint0_linear_120_7523" x1="60" y1="120" x2="60" y2="0" gradientUnits="userSpaceOnUse">
<stop stop-color="#00578E"/>
<stop offset="0.5" stop-color="#0073BB"/>
<stop offset="1" stop-color="#0093D9"/>
</linearGradient>
<linearGradient id="paint1_linear_120_7523" x1="59.9983" y1="101.992" x2="59.9983" y2="26.7756" gradientUnits="userSpaceOnUse">
<stop stop-color="#DDDEDE"/>
<stop offset="0.5" stop-color="#F4F4F4"/>
<stop offset="1" stop-color="white"/>
</linearGradient>
<linearGradient id="paint2_linear_120_7523" x1="68.8526" y1="94.0162" x2="68.8526" y2="38.3805" gradientUnits="userSpaceOnUse">
<stop stop-color="#007DC5"/>
<stop offset="0.5" stop-color="#0073BB"/>
<stop offset="1" stop-color="#0093D9"/>
</linearGradient>
<clipPath id="clip0_120_7523">
<rect width="120" height="120" rx="24" fill="white"/>
</clipPath>
</defs>
</svg>
