<svg width="175" height="50" viewBox="0 0 175 50" fill="none" xmlns="http://www.w3.org/2000/svg">
<g clip-path="url(#clip0_120_7564)">
<path d="M24.3309 0C20.7998 0 17.9584 2.69048 17.9584 6.40329C17.9584 10.1126 20.7998 12.8031 24.3309 12.8031C27.855 12.8031 30.7171 10.1126 30.7171 6.40329C30.7171 2.69048 27.855 0 24.3309 0ZM24.3274 11.1764C21.6102 11.1764 19.8033 9.22156 19.8033 6.40329C19.8033 3.55047 21.6102 1.62672 24.3274 1.62672C27.0688 1.62672 28.8722 3.55047 28.8722 6.40329C28.8722 9.22156 27.0653 11.1764 24.3274 11.1764Z" fill="#8DC63F"/>
<path d="M130.624 0C127.097 0 124.255 2.69048 124.255 6.40329C124.255 10.1126 127.097 12.8031 130.624 12.8031C134.152 12.8031 137.014 10.1126 137.014 6.40329C137.01 2.69048 134.148 0 130.624 0ZM130.624 11.1764C127.907 11.1764 126.097 9.22156 126.097 6.40329C126.097 3.55047 127.91 1.62672 130.624 1.62672C133.362 1.62672 135.166 3.55047 135.166 6.40329C135.166 9.22156 133.362 11.1764 130.624 11.1764Z" fill="#8DC63F"/>
<path d="M173.49 15.9146C172.49 15.255 171.276 14.9234 169.859 14.9234H156.197V29.3498H164.272V16.9784H166.89V29.3498H175V18.3634C175 17.3963 174.497 16.5778 173.49 15.9146Z" fill="#007DC5"/>
<path d="M137.562 28.2894C138.611 29.0044 139.897 29.3498 141.407 29.3498H149.335C150.849 29.3498 152.131 29.0009 153.193 28.2894C154.255 27.5814 154.787 26.718 154.787 25.7026V18.5775C154.787 17.562 154.255 16.6986 153.193 15.9871C152.131 15.2791 150.849 14.9268 149.335 14.9268H141.407C139.897 14.9268 138.611 15.2826 137.562 15.9871C136.514 16.6986 135.99 17.562 135.99 18.5775V25.706C135.99 26.718 136.514 27.5814 137.562 28.2894ZM144.135 17.0163H146.645V27.3707H144.135V17.0163Z" fill="#007DC5"/>
<path d="M95.8619 28.3447C96.8516 29.0182 98.055 29.3498 99.4723 29.3498H113.172V14.9234H105.065V27.2983H102.445V14.9234H94.3723V25.9167C94.3757 26.8631 94.8688 27.6678 95.8619 28.3447Z" fill="#007DC5"/>
<path d="M83.4761 25.7026V18.5775C83.4761 17.562 82.9451 16.6986 81.8864 15.9871C80.8244 15.2791 79.5382 14.9268 78.0278 14.9268H70.0968C68.5864 14.9268 67.3071 15.2826 66.2588 15.9871C65.2037 16.6986 64.683 17.562 64.683 18.5775V25.706C64.683 26.7214 65.2071 27.5814 66.2588 28.2929C67.3071 29.0078 68.5899 29.3532 70.0968 29.3532H78.0278C79.5382 29.3532 80.8244 29.0044 81.8864 28.2929C82.9485 27.5814 83.4761 26.718 83.4761 25.7026ZM75.3347 27.3707H72.8209V17.0163H75.3347V27.3707Z" fill="#007DC5"/>
<path d="M54.5242 15.9837C53.4621 16.6952 52.9311 17.5586 52.9311 18.574V27.2637H50.5552V29.3498H55.6242C57.1311 29.3498 58.4208 29.001 59.4794 28.2895C60.538 27.5815 61.0759 26.718 61.0759 25.7026V17.0164H63.269V14.9234H58.3483C56.8621 14.9234 55.5897 15.2791 54.5242 15.9837Z" fill="#007DC5"/>
<path d="M45.8068 18.5775L40.3585 14.9234H31.1516V17.0164H37.6619L29.9102 25.7026L35.3654 29.3498H44.5688V27.2637H38.055L45.8068 18.5775Z" fill="#007DC5"/>
<path d="M28.2826 13.6109C27.193 14.4536 25.8309 14.9682 24.3309 14.9682C22.8344 14.9682 21.4757 14.4571 20.3895 13.6178V29.3532H28.2826V13.6109Z" fill="#007DC5"/>
<path d="M134.579 13.6109C133.49 14.4536 132.131 14.9682 130.624 14.9682C129.128 14.9682 127.769 14.4571 126.686 13.6178V29.3532H134.579V13.6109Z" fill="#007DC5"/>
<path d="M17.2931 15.9526C16.2862 15.2895 15.0793 14.9614 13.6655 14.9614H8.07242V12.1397H8.05173V12.0154C8.05173 11.0241 7.53104 10.1745 6.48966 9.46302C5.44483 8.75499 4.17931 8.40271 2.68621 8.40271H0V11.6527V29.3913H13.6655C15.0793 29.3913 16.2862 29.0562 17.2931 28.3828C18.2966 27.7093 18.7966 26.8976 18.7966 25.9513V18.3979C18.7966 17.4309 18.2966 16.6123 17.2931 15.9526ZM10.6897 27.3363H8.07242V17.0509H10.6897V27.3363Z" fill="#007DC5"/>
<path d="M125.238 27.2983H122.69V17.0164H125.276V14.9234H122.69V11.8461H122.662C122.614 10.9136 122.103 10.102 121.11 9.42158C120.062 8.71011 118.783 8.35437 117.286 8.35437H114.583V11.9221V25.9133C114.583 26.8562 115.079 27.6609 116.066 28.3413C117.059 29.0148 118.276 29.3464 119.714 29.3464H125.234V27.2983H125.238Z" fill="#007DC5"/>
<path d="M92.9655 27.3363H92.962V17.051H92.9655V14.958H92.962V12.1363H92.9413V12.0119C92.9413 11.0207 92.4241 10.1711 91.3792 9.4596C90.3379 8.75158 89.0723 8.39929 87.5827 8.39929H84.8896V11.6493V29.3878H92.9655V27.3363Z" fill="#007DC5"/>
<path d="M21.685 38.8372H20.4036V46.2386H21.685V38.8372Z" fill="#007DC5"/>
<path d="M27.1795 38.7096C26.0519 38.7096 25.345 39.1966 24.5485 39.6836L24.2278 38.8339H23.2692V46.2354H24.5485V40.6333C25.483 40.1464 25.9968 39.8804 27.0243 39.8804C27.6657 39.8804 28.1519 40.2707 28.1519 41.1341V46.2354H29.4312V41.1341C29.4347 39.8666 28.7105 38.7096 27.1795 38.7096Z" fill="#007DC5"/>
<path d="M34.6136 41.9457H32.5412C32.0826 41.9457 31.7343 41.9318 31.7343 41.2342V40.6781C31.7343 40.2464 31.7619 39.9528 32.5412 39.9528H36.0895V39.0307C35.4067 38.8925 33.2929 38.7682 32.3722 38.7682C30.9412 38.7682 30.4515 39.5073 30.4515 40.647V41.2894C30.4515 42.7262 31.1033 43.1579 32.4136 43.1579H34.486C35.0412 43.1579 35.1826 43.4066 35.1826 43.8556V44.4393C35.1826 45.1784 34.5274 45.1059 34.486 45.1059H30.7584V45.9969C31.2895 46.1351 33.7791 46.3043 34.655 46.3043C35.5446 46.3043 36.4653 45.9969 36.4653 44.4807V43.7831C36.4653 42.7262 35.8791 41.9457 34.6136 41.9457Z" fill="#007DC5"/>
<path d="M41.6311 38.7545C40.6967 38.7545 39.4036 39.3381 39.0277 39.6317L38.738 38.8373H37.7656V49.9999H39.0174V45.8174C39.8518 46.1524 41.0105 46.3458 41.6346 46.3458C43.7208 46.3458 44.0553 44.467 44.0553 42.4983C44.0518 40.6609 43.5932 38.7545 41.6311 38.7545ZM41.4898 45.175C40.5311 45.175 39.8622 45.0783 39.0277 44.84V40.547C39.6829 40.2534 40.4898 39.946 41.4898 39.946C42.3105 39.946 42.7691 40.7542 42.7691 42.5225C42.7725 44.6915 42.2967 45.175 41.4898 45.175Z" fill="#007DC5"/>
<path d="M46.7399 38.8372H45.4586V46.2386H46.7399V38.8372Z" fill="#007DC5"/>
<path d="M49.6069 39.7699L49.3 38.8373H48.3276V46.2388H49.6069V40.8578C50.5241 40.2879 51.0965 40.0496 52.1241 40.0496C52.5276 40.0496 52.9862 40.0772 53.169 40.1187V38.865C52.9896 38.7821 52.569 38.7545 52.1965 38.7545C51.1103 38.7545 50.3586 39.2829 49.6069 39.7699Z" fill="#007DC5"/>
<path d="M59.9484 41.4138C59.9484 38.9617 58.8897 38.7786 57.038 38.7786C54.7415 38.7786 53.8104 39.2242 53.8104 42.4983C53.8104 45.3408 54.3656 46.3044 56.2449 46.3044C57.4001 46.3044 58.6932 46.2491 59.8035 45.9141V44.9816C58.7587 45.1474 57.7725 45.1336 56.5346 45.1336C55.4484 45.1336 55.0863 44.7985 55.0863 43.1684H57.9966C59.338 43.1684 59.9484 42.557 59.9484 41.4138ZM55.0932 42.0424C55.0794 39.9667 55.6518 39.9391 57.0828 39.9391C58.4311 39.9391 58.669 40.0772 58.669 41.4C58.669 41.8179 58.4208 42.0424 57.8622 42.0424H55.0932Z" fill="#007DC5"/>
<path d="M75.8451 41.9457H73.7726C73.314 41.9457 72.9657 41.9318 72.9657 41.2342V40.6781C72.9657 40.2464 72.9933 39.9528 73.7726 39.9528H77.3209V39.0307C76.6382 38.8925 74.5244 38.7682 73.6071 38.7682C72.1726 38.7682 71.6864 39.5073 71.6864 40.647V41.2894C71.6864 42.7262 72.3382 43.1579 73.6485 43.1579H75.7209C76.2761 43.1579 76.4175 43.4066 76.4175 43.8556V44.4393C76.4175 45.1784 75.7623 45.1059 75.7209 45.1059H71.9933V45.9969C72.5209 46.1351 75.014 46.3043 75.8899 46.3043C76.7795 46.3043 77.6968 45.9969 77.6968 44.4807V43.7831C77.6968 42.7262 77.114 41.9457 75.8451 41.9457Z" fill="#007DC5"/>
<path d="M82.5173 38.6957C81.1415 38.7095 79.9587 38.8338 78.9691 39.1274V40.0046C80.1242 39.9218 81.5001 39.8527 82.407 39.8527C83.0863 39.8527 83.507 40.091 83.507 40.9268C83.5208 40.9406 83.507 41.735 83.507 41.735C83.507 41.7522 80.6691 41.735 80.6691 41.735C79.4035 41.735 78.7346 42.5293 78.7346 43.6311V44.4393C78.7346 45.5687 79.5277 46.3043 80.6553 46.3181C81.8794 46.3181 83.4656 45.4132 83.507 45.3718L83.8139 46.2352H84.7863V40.913C84.7863 39.2966 83.7829 38.6818 82.5173 38.6957ZM83.5036 44.4669C83.5036 44.4669 81.8346 45.1473 80.8036 45.1473C80.3587 45.1473 80.0105 44.9677 80.0105 44.3115V43.7105C80.0105 43.2926 80.2036 42.9023 80.776 42.8471L83.5036 42.6537V44.4669Z" fill="#007DC5"/>
<path d="M88.307 36.7582H87.3035L87.0242 38.8201L85.7035 39.1137V39.9771H87.0242V43.5863C87.0242 45.5515 87.7759 46.2181 88.8621 46.2181H90.2104V45.3547C90.1104 45.3547 89.0553 45.0646 89.0553 45.0646C88.6104 44.9506 88.3035 44.6881 88.3035 43.5034V39.9771H90.3208V38.8201H88.3035V36.7582H88.307Z" fill="#007DC5"/>
<path d="M92.7642 38.8372H91.4829V46.2386H92.7642V38.8372Z" fill="#007DC5"/>
<path d="M98.2447 41.9457H96.1723C95.7137 41.9457 95.3654 41.9318 95.3654 41.2342V40.6781C95.3654 40.2464 95.393 39.9528 96.1723 39.9528H99.7206V39.0307C99.0378 38.8925 96.924 38.7682 96.0033 38.7682C94.5689 38.7682 94.0826 39.5073 94.0826 40.647V41.2894C94.0826 42.7262 94.7344 43.1579 96.0447 43.1579H98.1171C98.6723 43.1579 98.8137 43.4066 98.8137 43.8556V44.4393C98.8137 45.1784 98.1585 45.1059 98.1171 45.1059H94.3895V45.9969C94.9206 46.1351 97.4102 46.3043 98.2861 46.3043C99.1758 46.3043 100.093 45.9969 100.093 44.4807V43.7831C100.096 42.7262 99.5102 41.9457 98.2447 41.9457Z" fill="#007DC5"/>
<path d="M101.893 37.4558V38.8338L100.6 39.0721V39.9908H101.893V46.2353H103.172V39.9908H105.121V38.8338H103.172V37.5801C103.172 36.8825 103.186 36.3955 104.048 36.4093C104.048 36.4093 105.638 36.4231 105.652 36.4231V35.6149C104.996 35.3939 104.414 35.2799 103.731 35.2799C102.062 35.2834 101.893 36.5647 101.893 37.4558Z" fill="#007DC5"/>
<path d="M110.093 44.9953C110.066 44.9953 109.455 45.206 109.217 44.4531L107.576 38.8373H106.197L107.911 44.6085C108.342 46.0729 109.231 46.2387 109.721 46.2387L108.483 49.9998H109.331L110.359 48.5769L113.435 38.8338H112.042L110.093 44.9953Z" fill="#007DC5"/>
<path d="M127.286 36.7582H126.283L126.007 38.8201L124.686 39.1137V39.9771H126.007V43.5863C126.007 45.5515 126.759 46.2181 127.841 46.2181H129.19V45.3547C129.093 45.3547 128.035 45.0646 128.035 45.0646C127.59 44.9506 127.283 44.6881 127.283 43.5034V39.9771H129.3V38.8201H127.283V36.7582H127.286Z" fill="#007DC5"/>
<path d="M131.755 39.7699L131.448 38.8373H130.476V46.2388H131.755V40.8578C132.672 40.2879 133.245 40.0496 134.276 40.0496C134.679 40.0496 135.138 40.0772 135.317 40.1187V38.865C135.138 38.7821 134.717 38.7545 134.345 38.7545C133.259 38.7545 132.507 39.2829 131.755 39.7699Z" fill="#007DC5"/>
<path d="M141.124 44.4254C140.18 44.9297 139.676 45.1783 138.645 45.1783C138.007 45.1783 137.517 44.8157 137.517 43.9384V38.8372H136.238V43.9246C136.238 45.206 136.949 46.363 138.493 46.363C139.621 46.363 140.304 45.876 141.124 45.4028L141.445 46.2386H142.404V38.8372H141.124V44.4254Z" fill="#007DC5"/>
<path d="M147.848 41.9457H145.776C145.317 41.9457 144.969 41.9318 144.969 41.2342V40.6781C144.969 40.2464 144.997 39.9528 145.776 39.9528H149.324V39.0307C148.642 38.8925 146.528 38.7682 145.607 38.7682C144.173 38.7682 143.686 39.5073 143.686 40.647V41.2894C143.686 42.7262 144.342 43.1579 145.648 43.1579H147.721C148.276 43.1579 148.417 43.4066 148.417 43.8556V44.4393C148.417 45.1784 147.762 45.1059 147.721 45.1059H143.993V45.9969C144.521 46.1351 147.01 46.3043 147.89 46.3043C148.779 46.3043 149.697 45.9969 149.697 44.4807V43.7831C149.697 42.7262 149.11 41.9457 147.848 41.9457Z" fill="#007DC5"/>
<path d="M152.804 36.7582H151.8L151.524 38.8201L150.2 39.1137V39.9771H151.524V43.5863C151.524 45.5515 152.276 46.2181 153.359 46.2181H154.707V45.3547C154.61 45.3547 153.552 45.0646 153.552 45.0646C153.107 44.9506 152.8 44.6881 152.8 43.5034V39.9771H154.817V38.8201H152.8V36.7582H152.804Z" fill="#007DC5"/>
<path d="M21.076 35.722C20.5691 35.722 20.1622 36.133 20.1622 36.6407C20.1622 37.1485 20.5726 37.5594 21.076 37.5594C21.5829 37.5594 21.9933 37.1485 21.9933 36.6407C21.9933 36.133 21.5829 35.722 21.076 35.722Z" fill="#007DC5"/>
<path d="M46.0998 35.722C45.5929 35.722 45.1826 36.133 45.1826 36.6407C45.1826 37.1485 45.5929 37.5594 46.0998 37.5594C46.6067 37.5594 47.017 37.1485 47.017 36.6407C47.017 36.133 46.6067 35.722 46.0998 35.722Z" fill="#007DC5"/>
<path d="M92.124 35.722C91.6171 35.722 91.2102 36.133 91.2102 36.6407C91.2102 37.1485 91.6206 37.5594 92.124 37.5594C92.6309 37.5594 93.0412 37.1485 93.0412 36.6407C93.0378 36.133 92.6309 35.722 92.124 35.722Z" fill="#007DC5"/>
<path d="M65.8173 46.3597C66.3238 46.3597 66.7345 45.9484 66.7345 45.441C66.7345 44.9336 66.3238 44.5223 65.8173 44.5223C65.3107 44.5223 64.9 44.9336 64.9 45.441C64.9 45.9484 65.3107 46.3597 65.8173 46.3597Z" fill="#007DC5"/>
<path d="M118.686 44.5257C118.179 44.5257 117.773 44.9367 117.773 45.4444C117.773 45.9521 118.183 46.3631 118.686 46.3631C119.193 46.3631 119.604 45.9521 119.604 45.4444C119.6 44.9367 119.193 44.5257 118.686 44.5257Z" fill="#007DC5"/>
</g>
<defs>
<clipPath id="clip0_120_7564">
<rect width="175" height="50" fill="white"/>
</clipPath>
</defs>
</svg>
