<svg width="19" height="18" viewBox="0 0 19 18" fill="none" xmlns="http://www.w3.org/2000/svg">
<path d="M12.6 1.65737C12.2925 1.34987 11.76 1.55987 11.76 1.98737V4.60487C11.76 5.69987 12.69 6.60737 13.8225 6.60737C14.535 6.61487 15.525 6.61487 16.3725 6.61487C16.8 6.61487 17.025 6.11237 16.725 5.81237C15.645 4.72487 13.71 2.76737 12.6 1.65737Z" fill="#808085"/>
<path d="M16.125 7.6425H13.9575C12.18 7.6425 10.7325 6.195 10.7325 4.4175V2.25C10.7325 1.8375 10.395 1.5 9.9825 1.5H6.8025C4.4925 1.5 2.625 3 2.625 5.6775V12.3225C2.625 15 4.4925 16.5 6.8025 16.5H12.6975C15.0075 16.5 16.875 15 16.875 12.3225V8.3925C16.875 7.98 16.5375 7.6425 16.125 7.6425ZM9.375 13.3125H6.375C6.0675 13.3125 5.8125 13.0575 5.8125 12.75C5.8125 12.4425 6.0675 12.1875 6.375 12.1875H9.375C9.6825 12.1875 9.9375 12.4425 9.9375 12.75C9.9375 13.0575 9.6825 13.3125 9.375 13.3125ZM10.875 10.3125H6.375C6.0675 10.3125 5.8125 10.0575 5.8125 9.75C5.8125 9.4425 6.0675 9.1875 6.375 9.1875H10.875C11.1825 9.1875 11.4375 9.4425 11.4375 9.75C11.4375 10.0575 11.1825 10.3125 10.875 10.3125Z" fill="#808085"/>
</svg>
