<svg width="100" height="180" viewBox="0 0 100 180" fill="none" xmlns="http://www.w3.org/2000/svg">
<g clip-path="url(#clip0_405_13859)">
<rect x="34" y="32" width="32" height="32" rx="8" fill="white"/>
<rect x="34" y="32" width="32" height="32" fill="url(#paint0_linear_405_13859)"/>
<path d="M46.6248 57.9433C48.3513 57.6288 53.149 55.5306 53.6692 54.9532C54.1893 54.3701 57.0391 51.3171 57.255 50.8026C57.4708 50.288 58.2067 47.6124 58.2289 46.1145C58.251 44.6167 57.9245 42.0039 57.6644 41.4379C57.4044 40.8719 56.0652 39.8371 56.0652 39.8371L53.0106 38.7509L52.8502 38.345C52.8502 38.345 52.6122 37.6875 51.8209 37.6875C51.6383 37.6875 51.4225 37.7218 51.1679 37.8133C49.8509 38.2821 42.8232 40.1344 42.8232 40.1344C42.8232 40.1344 42.4248 40.2774 42.1038 40.5861C41.9434 40.7404 41.7773 40.9463 41.7773 41.1635V56.7198C41.7773 56.7198 44.8983 58.2577 46.6248 57.9433Z" fill="#007DC5"/>
<path d="M57.2986 39.2535C55.9926 39.7566 48.6273 42.478 48.6273 42.478C48.6273 42.478 43.149 44.1988 41.4668 41.163V43.8958C41.4668 43.8958 42.5901 45.8282 45.7443 45.3823C46.1981 45.3022 46.5965 46.1426 45.7443 46.377C44.8921 46.6114 42.4961 46.4228 41.4668 45.1479V54.5411C41.4668 54.5411 42.7617 56.3477 45.7222 56.0676C46.4692 55.9532 46.5467 57.0166 45.6668 57.0509C44.7925 57.0852 42.6455 57.1824 41.4668 55.6788V57.5998C41.4668 57.5998 43.2044 60.2125 47.9246 58.7603C48.976 58.3487 57.4314 54.987 57.4314 54.987C57.4314 54.987 58.444 54.4496 58.5326 53.0889V40.0711C58.5326 40.0711 58.5879 39.1392 57.8298 39.1392C57.6804 39.1392 57.5088 39.1735 57.2986 39.2535Z" fill="url(#paint1_linear_405_13859)"/>
<path d="M43.0109 41.363C43.0109 41.363 42.6014 41.5974 42.3635 41.2373C42.1255 40.8828 41.7714 40.3683 42.6236 40.0881C43.4758 39.808 51.9201 36.8294 51.9201 36.8294C51.9201 36.8294 52.8498 36.5835 52.8498 37.5097V38.8018C52.8498 38.8018 52.4403 38.7217 52.3628 38.5331C52.2853 38.3444 52.241 37.9842 51.8094 38.1672C51.3833 38.3501 43.0109 41.363 43.0109 41.363Z" fill="white"/>
<path d="M52.6884 38.4702L43.2812 41.8204L43.3421 42.0091L52.7549 38.6589L52.6884 38.4702Z" fill="white"/>
<path d="M53.5247 39.019L44.6211 42.192L44.682 42.3864L53.5911 39.2077L53.5247 39.019Z" fill="white"/>
<path d="M54.5762 39.4536L46.8789 42.1921L46.9398 42.3865L54.6371 39.6423L54.5762 39.4536Z" fill="white"/>
<path d="M56.5302 42.6551C56.1429 42.375 55.7113 42.2378 55.2409 42.2378C54.8923 42.2378 54.5215 42.3121 54.1286 42.4608L47.1895 45.0792L47.2503 57.068L49.9618 56.0446L49.9175 47.0116L54.1397 45.4165C54.3223 45.3479 54.4828 45.3651 54.6156 45.468C54.7484 45.5766 54.8148 45.731 54.8204 45.9425C54.8204 46.154 54.7539 46.3598 54.6267 46.5599C54.4939 46.7658 54.3334 46.903 54.1508 46.9716L50.7421 48.2579L50.7587 51.2137L54.1674 49.9273C55.1026 49.5729 55.8994 48.9097 56.5635 47.9263C57.2164 46.9487 57.5429 45.9425 57.5374 44.9134C57.5263 43.89 57.1943 43.1354 56.5302 42.6551Z" fill="url(#paint2_linear_405_13859)"/>
</g>
<rect x="10" y="88" width="32" height="6" rx="3" fill="#E7E7E9"/>
<rect x="10" y="100" width="50" height="6" rx="3" fill="#E7E7E9"/>
<rect x="10" y="112" width="64" height="6" rx="3" fill="#E7E7E9"/>
<rect x="10" y="124" width="60" height="6" rx="3" fill="#E7E7E9"/>
<rect x="10" y="136" width="70" height="6" rx="3" fill="#E7E7E9"/>
<rect x="10" y="148" width="80" height="6" rx="3" fill="#E7E7E9"/>
<defs>
<linearGradient id="paint0_linear_405_13859" x1="50" y1="64" x2="50" y2="32" gradientUnits="userSpaceOnUse">
<stop stop-color="#00578E"/>
<stop offset="0.5" stop-color="#0073BB"/>
<stop offset="1" stop-color="#0093D9"/>
</linearGradient>
<linearGradient id="paint1_linear_405_13859" x1="49.9997" y1="59.1976" x2="49.9997" y2="39.1398" gradientUnits="userSpaceOnUse">
<stop stop-color="#DDDEDE"/>
<stop offset="0.5" stop-color="#F4F4F4"/>
<stop offset="1" stop-color="white"/>
</linearGradient>
<linearGradient id="paint2_linear_405_13859" x1="52.3616" y1="57.0706" x2="52.3616" y2="42.2344" gradientUnits="userSpaceOnUse">
<stop stop-color="#007DC5"/>
<stop offset="0.5" stop-color="#0073BB"/>
<stop offset="1" stop-color="#0093D9"/>
</linearGradient>
<clipPath id="clip0_405_13859">
<rect x="34" y="32" width="32" height="32" rx="8" fill="white"/>
</clipPath>
</defs>
</svg>
