<svg width="19" height="18" viewBox="0 0 19 18" fill="none" xmlns="http://www.w3.org/2000/svg">
<path fill-rule="evenodd" clip-rule="evenodd" d="M1.90531 3.21485C1.75 3.6438 1.75 4.1792 1.75 5.25C1.75 6.3208 1.75 6.8562 1.90531 7.28515C2.16799 8.01065 2.73935 8.58201 3.46485 8.84469C3.8938 9 4.4292 9 5.5 9C6.5708 9 7.1062 9 7.53515 8.84469C8.26065 8.58201 8.83201 8.01065 9.09469 7.28515C9.25 6.8562 9.25 6.3208 9.25 5.25C9.25 4.1792 9.25 3.6438 9.09469 3.21485C8.83201 2.48935 8.26065 1.91799 7.53515 1.65531C7.1062 1.5 6.5708 1.5 5.5 1.5C4.4292 1.5 3.8938 1.5 3.46485 1.65531C2.73935 1.91799 2.16799 2.48935 1.90531 3.21485ZM4 3.3C4 3.5 4.11111 3.6 4.33333 3.6H6.66667C6.88889 3.6 7 3.5 7 3.3C7 3.1 6.88889 3 6.66667 3H4.33333C4.11111 3 4 3.1 4 3.3ZM6.16667 7.2C6.16667 7.4 6.30556 7.5 6.58333 7.5C6.86111 7.5 7 7.4 7 7.2V5.1C7 4.5 6.61111 4.2 5.83333 4.2H5.16667C4.38889 4.2 4 4.5 4 5.1V7.2C4 7.4 4.13889 7.5 4.41667 7.5C4.69444 7.5 4.83333 7.4 4.83333 7.2V5.1C4.83333 4.9 4.94444 4.8 5.16667 4.8H5.83333C6.05556 4.8 6.16667 4.9 6.16667 5.1V7.2Z" fill="#808085"/>
<path d="M7 17.0625C3.7975 17.0625 1.1875 14.4525 1.1875 11.25C1.1875 10.9425 1.4425 10.6875 1.75 10.6875C2.0575 10.6875 2.3125 10.9425 2.3125 11.25C2.3125 13.47 3.8575 15.33 5.935 15.8175L5.7325 15.48C5.575 15.21 5.6575 14.865 5.9275 14.7075C6.19 14.55 6.5425 14.6325 6.7 14.9025L7.4875 16.215C7.5925 16.3875 7.5925 16.605 7.495 16.7775C7.39 16.95 7.2025 17.0625 7 17.0625Z" fill="#808085"/>
<path d="M16.75 7.3125C16.4425 7.3125 16.1875 7.0575 16.1875 6.75C16.1875 4.53 14.6425 2.67 12.565 2.1825L12.7675 2.52C12.925 2.79 12.8425 3.135 12.5725 3.2925C12.31 3.45 11.9575 3.3675 11.8 3.0975L11.0125 1.785C10.9075 1.6125 10.9075 1.395 11.005 1.2225C11.11 1.05 11.2975 0.9375 11.5 0.9375C14.7025 0.9375 17.3125 3.5475 17.3125 6.75C17.3125 7.0575 17.0575 7.3125 16.75 7.3125Z" fill="#808085"/>
<path d="M12.94 8.88751C10.84 8.88751 9.13 10.59 9.13 12.6975C9.13 14.7975 10.8325 16.5075 12.94 16.5075C15.04 16.5075 16.75 14.805 16.75 12.6975C16.75 10.59 15.0475 8.88751 12.94 8.88751ZM14.8 14.505C14.5225 14.64 14.185 14.535 14.0425 14.25L13.915 13.995H11.9725L11.845 14.25C11.7475 14.445 11.545 14.5575 11.3425 14.5575C11.26 14.5575 11.17 14.535 11.095 14.4975C10.8175 14.355 10.705 14.0175 10.84 13.74L12.445 10.5375C12.5425 10.35 12.7375 10.23 12.9475 10.23C13.1575 10.23 13.3525 10.35 13.45 10.545L15.055 13.7475C15.19 14.025 15.0775 14.3625 14.8 14.505Z" fill="#808085"/>
<path d="M12.535 12.87H13.3525L12.94 12.0525L12.535 12.87Z" fill="#808085"/>
</svg>
