<svg width="16" height="16" viewBox="0 0 16 16" fill="none" xmlns="http://www.w3.org/2000/svg">
<path d="M7.99992 1.33325C4.31992 1.33325 1.33325 4.31992 1.33325 7.99992C1.33325 11.6799 4.31992 14.6666 7.99992 14.6666C11.6799 14.6666 14.6666 11.6799 14.6666 7.99992C14.6666 4.31992 11.6799 1.33325 7.99992 1.33325ZM8.15992 10.1666C8.67992 10.1666 9.19325 9.97325 9.58659 9.62659C9.79325 9.44659 10.1133 9.46659 10.2933 9.67325C10.4733 9.87992 10.4533 10.1999 10.2466 10.3799C9.66659 10.8933 8.92659 11.1733 8.15992 11.1733C6.41325 11.1733 4.99325 9.75325 4.99325 8.00659C4.99325 6.25992 6.41325 4.83992 8.15992 4.83992C8.92659 4.83992 9.67325 5.11992 10.2466 5.63325C10.4533 5.81325 10.4733 6.13325 10.2933 6.33992C10.1066 6.54659 9.79325 6.56659 9.58659 6.38659C9.19325 6.03992 8.68659 5.84659 8.15992 5.84659C6.96659 5.84659 5.99325 6.81992 5.99325 8.01325C5.99325 9.20659 6.96659 10.1666 8.15992 10.1666Z" fill="#007DC5"/>
</svg>
