<svg width="19" height="18" viewBox="0 0 19 18" fill="none" xmlns="http://www.w3.org/2000/svg">
<path d="M9.25 1.5C5.1175 1.5 1.75 4.8675 1.75 9C1.75 13.1325 5.1175 16.5 9.25 16.5C13.3825 16.5 16.75 13.1325 16.75 9C16.75 4.8675 13.3825 1.5 9.25 1.5ZM12.5125 11.6775C12.4075 11.8575 12.22 11.955 12.025 11.955C11.9275 11.955 11.83 11.9325 11.74 11.8725L9.415 10.485C8.8375 10.14 8.41 9.3825 8.41 8.715V5.64C8.41 5.3325 8.665 5.0775 8.9725 5.0775C9.28 5.0775 9.535 5.3325 9.535 5.64V8.715C9.535 8.985 9.76 9.3825 9.9925 9.5175L12.3175 10.905C12.5875 11.0625 12.6775 11.4075 12.5125 11.6775Z" fill="#808085"/>
</svg>
