<svg width="19" height="18" viewBox="0 0 19 18" fill="none" xmlns="http://www.w3.org/2000/svg">
<path d="M9.1875 4.5V14.9325C9.1875 15.465 8.6475 15.8325 8.16 15.63C6.765 15.045 5.0325 14.535 3.8025 14.37L3.57 14.34C2.8425 14.25 2.25 13.5825 2.25 12.855V3.9375C2.25 3.0375 2.9775 2.31 3.8775 2.31H3.93C5.34 2.43 7.4175 3.09 8.79 3.8325C9.0375 3.9675 9.1875 4.215 9.1875 4.5Z" fill="#808085"/>
<path d="M15.6225 2.31H15.5775C15.3975 2.325 15.2025 2.3475 15 2.385C14.0775 2.535 12.9825 2.85 12 3.24C11.535 3.4275 11.1 3.63 10.7175 3.8325C10.47 3.9675 10.3125 4.2225 10.3125 4.5V14.9325C10.3125 15.465 10.8525 15.8325 11.34 15.63C12.735 15.045 14.4675 14.535 15.6975 14.37L15.93 14.34C16.6575 14.25 17.25 13.5825 17.25 12.855V3.9375C17.25 3.0375 16.5225 2.31 15.6225 2.31ZM15.2025 10.2975C15.2025 10.59 14.9925 10.7175 14.7375 10.575L13.9425 10.1325C13.86 10.0875 13.725 10.0875 13.635 10.1325L12.84 10.575C12.585 10.7175 12.375 10.59 12.375 10.2975V7.995C12.375 7.65 12.66 7.365 13.005 7.365H14.58C14.925 7.365 15.21 7.65 15.21 7.995V10.2975H15.2025Z" fill="#808085"/>
</svg>
