<svg width="16" height="16" viewBox="0 0 16 16" fill="none" xmlns="http://www.w3.org/2000/svg">
<path fill-rule="evenodd" clip-rule="evenodd" d="M7.99992 1.33325C4.31802 1.33325 1.33325 4.31802 1.33325 7.99992C1.33325 11.6818 4.31802 14.6666 7.99992 14.6666C11.6818 14.6666 14.6666 11.6818 14.6666 7.99992C14.6666 4.31802 11.6818 1.33325 7.99992 1.33325ZM6.86925 8.97992L7.55192 8.80658C9.62836 8.37992 10.6666 7.49547 10.6666 6.15325C10.6666 4.7177 9.7777 3.99992 7.99992 3.99992C6.22214 3.99992 5.33325 4.67325 5.33325 6.01992V6.24659C5.33325 6.88658 5.66747 7.20659 6.33592 7.20659H7.40259V6.24659C7.04703 6.24659 6.86925 6.17103 6.86925 6.01992C6.86925 5.50881 7.24614 5.25325 7.99992 5.25325C8.7537 5.25325 9.13059 5.55325 9.13059 6.15325C9.13059 6.85992 8.58659 7.35103 7.49859 7.62659L5.33325 8.09325V9.84658C5.33325 11.2821 6.22214 11.9999 7.99992 11.9999C9.7777 11.9999 10.6666 11.2821 10.6666 9.84658V8.79992H9.13059V9.84658C9.13059 10.4466 8.7537 10.7466 7.99992 10.7466C7.24614 10.7466 6.86925 10.4466 6.86925 9.84658V8.97992Z" fill="#007DC5"/>
</svg>
