<svg width="24" height="24" viewBox="0 0 24 24" fill="none" xmlns="http://www.w3.org/2000/svg">
<path fill-rule="evenodd" clip-rule="evenodd" d="M2.65387 2.87588C2 3.61395 2 4.74263 2 7C2 9.25737 2 10.3861 2.65387 11.1241C2.72334 11.2025 2.79747 11.2767 2.87588 11.3461C3.61395 12 4.74263 12 7 12C9.25737 12 10.3861 12 11.1241 11.3461C11.2025 11.2767 11.2767 11.2025 11.3461 11.1241C12 10.3861 12 9.25737 12 7C12 4.74263 12 3.61395 11.3461 2.87588C11.2767 2.79747 11.2025 2.72334 11.1241 2.65387C10.3861 2 9.25737 2 7 2C4.74263 2 3.61395 2 2.87588 2.65387C2.79747 2.72334 2.72334 2.79747 2.65387 2.87588ZM5 9.52857C5 9.78571 5.21968 10 5.50343 10L5.51259 9.99143C5.51259 9.99143 5.51259 10 5.53089 10H8.49657C8.76201 10 9 9.78571 9 9.52857C9 9.26286 8.76201 9.04857 8.49657 9.04857H6.01602V7.47143H8.14874C8.42334 7.47143 8.65217 7.25714 8.65217 6.99143C8.65217 6.74286 8.42334 6.52 8.14874 6.52H6.01602V4.95143H8.49657C8.76201 4.95143 9 4.73714 9 4.47143C9 4.20571 8.76201 4 8.49657 4H5.53089H5.51259H5.50343C5.21968 4 5 4.20571 5 4.47143V9.52857Z" fill="white"/>
<path fill-rule="evenodd" clip-rule="evenodd" d="M17 12C14.2386 12 12 14.2386 12 17C12 19.7614 14.2386 22 17 22C19.7614 22 22 19.7614 22 17C22 14.2386 19.7614 12 17 12ZM16.152 17.735L16.664 17.605C18.2213 17.285 19 16.6217 19 15.615C19 14.5383 18.3333 14 17 14C15.6667 14 15 14.505 15 15.515V15.685C15 16.165 15.2507 16.405 15.752 16.405H16.552V15.685C16.2853 15.685 16.152 15.6283 16.152 15.515C16.152 15.1317 16.4347 14.94 17 14.94C17.5653 14.94 17.848 15.165 17.848 15.615C17.848 16.145 17.44 16.5133 16.624 16.72L15 17.07V18.385C15 19.4617 15.6667 20 17 20C18.3333 20 19 19.4617 19 18.385V17.6H17.848V18.385C17.848 18.835 17.5653 19.06 17 19.06C16.4347 19.06 16.152 18.835 16.152 18.385V17.735Z" fill="white"/>
<path d="M9.19982 23C4.68198 23 1 19.3153 1 14.7941C1 14.36 1.35973 14 1.79353 14C2.22733 14 2.58706 14.36 2.58706 14.7941C2.58706 17.9282 4.76663 20.5541 7.6974 21.2424L7.41173 20.7659C7.18954 20.3847 7.30593 19.8976 7.68682 19.6753C8.05714 19.4529 8.55441 19.5694 8.7766 19.9506L9.88755 21.8035C10.0357 22.0471 10.0357 22.3541 9.89813 22.5976C9.75 22.8412 9.48549 23 9.19982 23Z" fill="white"/>
<path d="M22.2065 10C21.7727 10 21.4129 9.64 21.4129 9.20588C21.4129 6.07176 19.2334 3.44588 16.3026 2.75765L16.5883 3.23412C16.8105 3.61529 16.6941 4.10235 16.3132 4.32471C15.9429 4.54706 15.4456 4.43059 15.2234 4.04941L14.1125 2.19647C13.9643 1.95294 13.9643 1.64588 14.1019 1.40235C14.25 1.15882 14.5145 1 14.8002 1C19.318 1 23 4.68471 23 9.20588C23 9.64 22.6403 10 22.2065 10Z" fill="white"/>
</svg>
