<svg width="24" height="24" viewBox="0 0 24 24" fill="none" xmlns="http://www.w3.org/2000/svg">
<path fill-rule="evenodd" clip-rule="evenodd" d="M2.65387 2.87588C2 3.61395 2 4.74263 2 7C2 9.25737 2 10.3861 2.65387 11.1241C2.72334 11.2025 2.79747 11.2767 2.87588 11.3461C3.61395 12 4.74263 12 7 12C9.25737 12 10.3861 12 11.1241 11.3461C11.2025 11.2767 11.2767 11.2025 11.3461 11.1241C12 10.3861 12 9.25737 12 7C12 4.74263 12 3.61395 11.3461 2.87588C11.2767 2.79747 11.2025 2.72334 11.1241 2.65387C10.3861 2 9.25737 2 7 2C4.74263 2 3.61395 2 2.87588 2.65387C2.79747 2.72334 2.72334 2.79747 2.65387 2.87588ZM6.152 7.735L6.664 7.605C8.22133 7.285 9 6.62167 9 5.615C9 4.53833 8.33333 4 7 4C5.66667 4 5 4.505 5 5.515V5.685C5 6.165 5.25067 6.405 5.752 6.405H6.552V5.685C6.28533 5.685 6.152 5.62833 6.152 5.515C6.152 5.13167 6.43467 4.94 7 4.94C7.56533 4.94 7.848 5.165 7.848 5.615C7.848 6.145 7.44 6.51333 6.624 6.72L5 7.07V8.385C5 9.46167 5.66667 10 7 10C8.33333 10 9 9.46167 9 8.385V7.6H7.848V8.385C7.848 8.835 7.56533 9.06 7 9.06C6.43467 9.06 6.152 8.835 6.152 8.385V7.735Z" fill="white"/>
<path fill-rule="evenodd" clip-rule="evenodd" d="M17 12C14.2386 12 12 14.2386 12 17C12 19.7614 14.2386 22 17 22C19.7614 22 22 19.7614 22 17C22 14.2386 19.7614 12 17 12ZM15 19.5286C15 19.7857 15.2197 20 15.5034 20L15.5126 19.9914C15.5126 19.9914 15.5126 20 15.5309 20H18.4966C18.762 20 19 19.7857 19 19.5286C19 19.2629 18.762 19.0486 18.4966 19.0486H16.016V17.4714H18.1487C18.4233 17.4714 18.6522 17.2571 18.6522 16.9914C18.6522 16.7429 18.4233 16.52 18.1487 16.52H16.016V14.9514H18.4966C18.762 14.9514 19 14.7371 19 14.4714C19 14.2057 18.762 14 18.4966 14H15.5309H15.5126H15.5034C15.2197 14 15 14.2057 15 14.4714V19.5286Z" fill="white"/>
<path d="M9.19982 23C4.68198 23 1 19.3153 1 14.7941C1 14.36 1.35973 14 1.79353 14C2.22733 14 2.58706 14.36 2.58706 14.7941C2.58706 17.9282 4.76663 20.5541 7.6974 21.2424L7.41173 20.7659C7.18954 20.3847 7.30593 19.8976 7.68682 19.6753C8.05714 19.4529 8.55441 19.5694 8.7766 19.9506L9.88755 21.8035C10.0357 22.0471 10.0357 22.3541 9.89813 22.5976C9.75 22.8412 9.48549 23 9.19982 23Z" fill="white"/>
<path d="M22.2065 10C21.7727 10 21.4129 9.64 21.4129 9.20588C21.4129 6.07176 19.2334 3.44588 16.3026 2.75765L16.5883 3.23412C16.8105 3.61529 16.6941 4.10235 16.3132 4.32471C15.9429 4.54706 15.4456 4.43059 15.2234 4.04941L14.1125 2.19647C13.9643 1.95294 13.9643 1.64588 14.1019 1.40235C14.25 1.15882 14.5145 1 14.8002 1C19.318 1 23 4.68471 23 9.20588C23 9.64 22.6403 10 22.2065 10Z" fill="white"/>
</svg>
